HIERARCHY
ROOT Hips
{
  OFFSET 50.4609 96.01 19.0014
  CHANNELS 6 Xposition Yposition Zposition Zrotation Xrotation Yrotation
  JOINT spine
  {
    OFFSET 0 8.13249 0.467659
    CHANNELS 3 Zrotation Xrotation Yrotation
    JOINT spine1
    {
      OFFSET 0 10.3498 0
      CHANNELS 3 Zrotation Xrotation Yrotation
      JOINT spine2
      {
        OFFSET 0 9.91699 0
        CHANNELS 3 Zrotation Xrotation Yrotation
        JOINT Neck
        {
          OFFSET 0 25.461 1.2139
          CHANNELS 3 Zrotation Xrotation Yrotation
          JOINT Head
          {
            OFFSET 0 7.69245 0
            CHANNELS 3 Zrotation Xrotation Yrotation
            End Site
            {
              OFFSET 0 18.62 -6.14063
            }
          }
        }
        JOINT RightShoulder
        {
          OFFSET -4.17575 10.7096 -0.581445
          CHANNELS 3 Zrotation Xrotation Yrotation
          JOINT RightArm
          {
            OFFSET 0 14.0466 0
            CHANNELS 3 Zrotation Xrotation Yrotation
            JOINT RightArmRoll
            {
              OFFSET 0 7.09099 0
              CHANNELS 3 Zrotation Xrotation Yrotation
              JOINT RightForeArm
              {
                OFFSET 0 20.6535 0
                CHANNELS 3 Zrotation Xrotation Yrotation
                JOINT RightForeArmRoll
                {
                  OFFSET 0 7.95718 0
                  CHANNELS 3 Zrotation Xrotation Yrotation
                  JOINT RightHand
                  {
                    OFFSET 0 15.9683 0
                    CHANNELS 3 Zrotation Xrotation Yrotation
                    End Site
                    {
                      OFFSET 0 0 0
                    }
                  }
                }
              }
            }
          }
        }
        JOINT LeftShoulder
        {
          OFFSET 4.17575 10.7096 -0.581445
          CHANNELS 3 Zrotation Xrotation Yrotation
          JOINT LeftArm
          {
            OFFSET 0 14.0466 0
            CHANNELS 3 Zrotation Xrotation Yrotation
            JOINT LeftArmRoll
            {
              OFFSET 0 7.09098 0
              CHANNELS 3 Zrotation Xrotation Yrotation
              JOINT LeftForeArm
              {
                OFFSET 0 20.6535 0
                CHANNELS 3 Zrotation Xrotation Yrotation
                JOINT LeftForeArmRoll
                {
                  OFFSET 0 7.95718 0
                  CHANNELS 3 Zrotation Xrotation Yrotation
                  JOINT LeftHand
                  {
                    OFFSET 0 15.9683 0
                    CHANNELS 3 Zrotation Xrotation Yrotation
                    End Site
                    {
                      OFFSET 0 0 0
                    }
                  }
                }
              }
            }
          }
        }
      }
    }
  }
  JOINT RightUpLeg
  {
    OFFSET -7.20834 -1.32182 -1.10884
    CHANNELS 3 Zrotation Xrotation Yrotation
    JOINT RightUpLegRoll
    {
      OFFSET 0 18.7238 0
      CHANNELS 3 Zrotation Xrotation Yrotation
      JOINT RightLeg
      {
        OFFSET 0 -23.1866 0
        CHANNELS 3 Zrotation Xrotation Yrotation
        JOINT RightLegRoll
        {
          OFFSET 0 23.2624 0
          CHANNELS 3 Zrotation Xrotation Yrotation
          JOINT RightFoot
          {
            OFFSET 0 19.3621 0
            CHANNELS 3 Zrotation Xrotation Yrotation
            JOINT RightToeBase
            {
              OFFSET 0 16.1857 0
              CHANNELS 3 Zrotation Xrotation Yrotation
              End Site
              {
                OFFSET 0.00686052 7.83862 -0.903522
              }
            }
          }
        }
      }
    }
  }
  JOINT LeftUpLeg
  {
    OFFSET 7.20834 -1.32182 -1.10884
    CHANNELS 3 Zrotation Xrotation Yrotation
    JOINT LeftUpLegRoll
    {
      OFFSET 0 18.7239 0
      CHANNELS 3 Zrotation Xrotation Yrotation
      JOINT LeftLeg
      {
        OFFSET 0 23.1865 0
        CHANNELS 3 Zrotation Xrotation Yrotation
        JOINT LeftLegRoll
        {
          OFFSET 0 23.4775 0
          CHANNELS 3 Zrotation Xrotation Yrotation
          JOINT LeftFoot
          {
            OFFSET 0 19.147 0
            CHANNELS 3 Zrotation Xrotation Yrotation
            JOINT LeftToeBase
            {
              OFFSET 0 16.1857 0
              CHANNELS 3 Zrotation Xrotation Yrotation
              End Site
              {
                OFFSET -0.0307459 7.83862 -0.903522
              }
            }
          }
        }
      }
    }
  }
}
MOTION
Frames: 13
Frame Time: 0.00208333
53.2382 103.521 21.7488 1.72397 4.87143 -1.94323 0.420143 0.623702 0.343956 0.836179 5.25239 0.628946 0.830167 6.89733 0.615721 -6.03912 -4.31793 -5.6847 2.08421 -0.584255 -6.25145 46.316 -13.4134 -8.89456 106.774 -6.21999 -24.6355 -2.91674e-007 -3.4775e-006 -1.79532e-006 24.834 53.2219 -10.0239 -7.38194e-007 -1.65596e-006 -3.00917 8.02914 -4.95145 0.697677 -54.057 -6.66887 3.91835 -110.135 -2.11098 25.9307 -3.61081e-006 -9.63841e-006 7.82647e-006 -14.1949 42.59 1.44934 5.88699e-006 9.05136e-007 3 -8.029 -4.95147 -0.69769 174.304 15.1929 2.17023 180 7.01578e-015 179.069 178.989 15.9429 179.603 -5.68538e-008 -4.48013e-006 0.133326 -17.3461 66.4683 18.3522 8.13211 25.1681 -3.53416 -177.161 12.5756 0.941799 4.54188e-006 -4.6773e-006 -0.869155 -2.21659 -15.2159 0.09415 3.42127e-006 5.04085e-006 -0.217924 19.0154 68.8205 -20.2251 -8.13649 25.2326 3.48773 
53.2718 103.189 21.74 1.73855 4.9769 -1.9365 0.419415 0.621469 0.333101 0.834942 5.24786 0.607342 0.829188 6.89281 0.594107 -6.14577 -4.32401 -5.66311 2.1745 -0.716896 -6.23013 46.3502 -13.3732 -8.86208 107.03 -5.92864 -23.9625 -2.91674e-007 -3.4775e-006 -1.79532e-006 24.9118 52.4239 -9.91365 -7.38194e-007 -1.65596e-006 -3.00917 8.02914 -4.95145 0.697677 -54.1505 -6.67752 3.92813 -110.201 -1.80133 25.4735 -3.61081e-006 -9.63841e-006 7.82647e-006 -14.4182 41.8326 1.52114 5.88699e-006 9.05136e-007 3 -8.029 -4.95147 -0.69769 174.287 15.4912 2.21992 180 7.01578e-015 179.068 178.95 16.4079 179.6 -5.68538e-008 -4.48013e-006 0.142045 -17.3485 66.4807 18.3621 8.1363 25.2298 -3.48977 -177.144 12.8975 0.863608 4.54188e-006 -4.6773e-006 -0.867627 -2.29585 -15.6366 0.0742647 3.42127e-006 5.04085e-006 -0.22228 19.0094 68.8123 -20.2181 -8.13649 25.2326 3.48773 
53.2635 102.834 21.7109 1.73951 5.08234 -1.93351 0.416757 0.620327 0.320552 0.829865 5.2455 0.582617 0.824399 6.89045 0.569433 -6.18502 -4.34812 -5.63347 2.22361 -0.844832 -6.19655 46.4303 -13.3186 -8.81663 107.256 -5.62441 -23.3101 -2.91674e-007 -3.4775e-006 -1.79532e-006 24.9657 51.6435 -9.79711 -7.38194e-007 -1.65596e-006 -3.00918 8.02914 -4.95145 0.697677 -54.1743 -6.71311 3.95373 -110.327 -1.48755 25.0215 -3.61081e-006 -9.63841e-006 7.82647e-006 -14.6234 41.0668 1.58345 5.88699e-006 9.05136e-007 3 -8.029 -4.95147 -0.69769 174.288 15.7887 2.26565 180 7.01578e-015 179.067 178.905 16.8992 179.598 -5.68538e-008 -4.48013e-006 0.150071 -17.3344 66.4681 18.3548 8.14143 25.3078 -3.42955 -177.108 13.2325 0.756306 4.54188e-006 -4.6773e-006 -0.866184 -2.39126 -16.1135 0.0508285 3.42127e-006 5.04085e-006 -0.226381 18.9931 68.7899 -20.1991 -8.13577 25.2219 3.48972 
53.2869 102.506 21.6776 1.7283 5.1904 -1.93386 0.412014 0.619736 0.305864 0.820642 5.24423 0.553903 0.815504 6.88918 0.540835 -6.16466 -4.39072 -5.59451 2.23955 -0.966411 -6.14996 46.5517 -13.2493 -8.75829 107.459 -5.30644 -22.6707 -2.91674e-007 -3.4775e-006 -1.79532e-006 24.9932 50.8683 -9.66794 -7.38194e-007 -1.65596e-006 -3.00918 8.02914 -4.95145 0.697677 -54.1313 -6.77656 3.99583 -110.514 -1.16812 24.5693 -3.61081e-006 -9.63841e-006 7.82647e-006 -14.809 40.2826 1.63399 5.88699e-006 9.05136e-007 3 -8.029 -4.95147 -0.69769 174.306 16.0848 2.30899 180 7.01578e-015 179.066 178.854 17.4132 179.595 -5.68537e-008 -4.48013e-006 0.15653 -17.2933 66.4133 18.3188 8.14726 25.4002 -3.35119 -177.051 13.581 0.619121 4.54188e-006 -4.6773e-006 -0.864794 -2.5061 -16.6411 0.0241057 3.42127e-006 5.04085e-006 -0.22949 18.9544 68.7379 -20.1553 -8.13368 25.191 3.49545 
53.2697 102.144 21.6516 1.70657 5.30064 -1.93713 0.405528 0.61967 0.289379 0.807958 5.24399 0.521837 0.803183 6.88895 0.508938 -6.09334 -4.44929 -5.54775 2.22713 -1.08309 -6.09235 46.7083 -13.1674 -8.68886 107.642 -4.97647 -22.0437 -2.91674e-007 -3.4775e-006 -1.79532e-006 24.9974 50.0988 -9.52857 -7.38194e-007 -1.65596e-006 -3.00918 8.02914 -4.95145 0.697677 -54.0312 -6.86352 4.05185 -110.751 -0.843686 24.1183 -3.61081e-006 -9.63841e-006 7.82647e-006 -14.9767 39.4845 1.67422 5.88699e-006 9.05136e-007 3 -8.029 -4.95147 -0.69769 174.339 16.3812 2.35036 180 7.01577e-015 179.064 178.797 17.9501 179.592 -5.68536e-008 -4.48012e-006 0.161858 -17.2314 66.3255 18.2607 8.15355 25.5057 -3.25727 -176.976 13.9424 0.455733 4.54188e-006 -4.6773e-006 -0.863454 -2.63776 -17.2161 -0.00570401 3.42127e-006 5.04085e-006 -0.231913 18.8992 68.6632 -20.0928 -8.13053 25.1445 3.50408 
53.3017 101.782 21.6102 1.67597 5.41259 -1.94289 0.397645 0.620101 0.27144 0.7925 5.24473 0.487057 0.788115 6.8897 0.474371 -5.97972 -4.52136 -5.49471 2.19116 -1.19633 -6.0257 46.8938 -13.0748 -8.61017 107.807 -4.63626 -21.4286 -2.91674e-007 -3.4775e-006 -1.79532e-006 24.9812 49.3358 -9.38129 -7.38194e-007 -1.65596e-006 -3.00919 8.02914 -4.95145 0.697677 -53.884 -6.96963 4.11924 -111.031 -0.514901 23.6694 -3.61081e-006 -9.63841e-006 7.82647e-006 -15.128 38.6774 1.70552 5.88699e-006 9.05136e-007 3 -8.029 -4.95147 -0.69769 174.385 16.6795 2.39015 180 7.01577e-015 179.061 178.736 18.5103 179.589 -5.68535e-008 -4.48012e-006 0.166489 -17.1548 66.2139 18.1871 8.16008 25.623 -3.15041 -176.885 14.3161 0.269833 4.54188e-006 -4.6773e-006 -0.862162 -2.78366 -17.835 -0.0384058 3.42127e-006 5.04084e-006 -0.233951 18.8329 68.5728 -20.0179 -8.12661 25.087 3.51473 
53.2998 101.42 21.5844 1.63815 5.52579 -1.95074 0.38871 0.621003 0.252391 0.774954 5.2464 0.450203 0.770981 6.89138 0.437762 -5.83247 -4.60441 -5.43693 2.13641 -1.30758 -5.95203 47.102 -12.9735 -8.52403 107.959 -4.28757 -20.8249 -2.91674e-007 -3.4775e-006 -1.79532e-006 24.9474 48.5801 -9.22817 -7.38194e-007 -1.65596e-006 -3.00919 8.02914 -4.95145 0.697677 -53.6995 -7.09052 4.19544 -111.344 -0.182454 23.224 -3.61081e-006 -9.63841e-006 7.82647e-006 -15.2646 37.8659 1.72923 5.88699e-006 9.05136e-007 3 -8.029 -4.95147 -0.69769 174.44 16.9814 2.42877 180 7.01576e-015 179.058 178.671 19.0942 179.586 -5.68534e-008 -4.48011e-006 0.170859 -17.0696 66.0879 18.1048 8.16665 25.7508 -3.03323 -176.78 14.7014 0.065122 4.54188e-006 -4.6773e-006 -0.860916 -2.94119 -18.4945 -0.0738091 3.42127e-006 5.04084e-006 -0.235912 18.7611 68.4736 -19.9364 -8.12224 25.0231 3.52656 
53.3337 101.053 21.5639 1.59478 5.63977 -1.96024 0.37907 0.622352 0.232576 0.756007 5.24896 0.411912 0.752461 6.89395 0.399739 -5.66027 -4.69597 -5.37592 2.06766 -1.4183 -5.87333 47.3267 -12.8656 -8.43225 108.101 -3.93222 -20.2319 -2.91674e-007 -3.4775e-006 -1.79532e-006 24.8983 47.8323 -9.07117 -7.38194e-007 -1.65596e-006 -3.0092 8.02914 -4.95145 0.697677 -53.4875 -7.22183 4.27789 -111.68 0.15295 22.7832 -3.61081e-006 -9.63841e-006 7.82647e-006 -15.3878 37.0548 1.7466 5.88699e-006 9.05136e-007 3 -8.029 -4.95147 -0.69769 174.504 17.2886 2.46663 180 7.01575e-015 179.055 178.604 19.7023 179.584 -5.68533e-008 -4.48011e-006 0.175403 -16.9818 65.9566 18.0198 8.17307 25.8879 -2.90836 -176.663 15.0977 -0.154687 4.54188e-006 -4.6773e-006 -0.859713 -3.10774 -19.191 -0.111727 3.42127e-006 5.04084e-006 -0.238098 18.6891 68.3725 -19.8544 -8.11771 24.9575 3.53869 
53.3064 100.667 21.526 1.54748 5.75407 -1.97099 0.369068 0.62412 0.212339 0.736346 5.25235 0.372825 0.733236 6.89735 0.360929 -5.4718 -4.79352 -5.31323 1.98968 -1.52995 -5.79159 47.5615 -12.753 -8.33662 108.236 -3.572 -19.649 -2.91674e-007 -3.4775e-006 -1.79532e-006 24.8365 47.0934 -8.91209 -7.38194e-007 -1.65596e-006 -3.0092 8.02914 -4.95145 0.697677 -53.2581 -7.35921 4.36402 -112.033 0.490588 22.3481 -3.61081e-006 -9.63841e-006 7.82647e-006 -15.4991 36.2487 1.75883 5.88699e-006 9.05136e-007 3 -8.029 -4.95147 -0.69769 174.572 17.6028 2.50415 180 7.01575e-015 179.051 178.536 20.3348 179.581 -5.68532e-008 -4.4801e-006 0.180558 -16.8968 65.8295 17.9383 8.1792 26.033 -2.77842 -176.536 15.5045 -0.385864 4.54188e-006 -4.6773e-006 -0.858552 -3.28071 -19.9212 -0.151974 3.42127e-006 5.04083e-006 -0.240814 18.622 68.2766 -19.7773 -8.11335 24.8948 3.55029 
53.3052 100.285 21.4899 1.49791 5.86823 -1.98255 0.359051 0.626282 0.192023 0.716658 5.25653 0.333579 0.713984 6.90153 0.321961 -5.27579 -4.89457 -5.25036 1.90722 -1.64398 -5.70882 47.8005 -12.6378 -8.23895 108.368 -3.20873 -19.0755 -2.91674e-007 -3.4775e-006 -1.79532e-006 24.764 46.364 -8.75262 -7.38194e-007 -1.65596e-006 -3.0092 8.02914 -4.95145 0.697677 -53.0212 -7.49832 4.45125 -112.391 0.829717 21.9198 -3.61081e-006 -9.63841e-006 7.82647e-006 -15.5997 35.4524 1.76707 5.88699e-006 9.05136e-007 3 -8.029 -4.95147 -0.69769 174.644 17.9256 2.54176 180 7.01574e-015 179.048 178.467 20.9921 179.579 -5.68532e-008 -4.48009e-006 0.186758 -16.8201 65.7157 17.8661 8.1849 26.1848 -2.64607 -176.402 15.9211 -0.624656 4.54188e-006 -4.6773e-006 -0.85743 -3.45746 -20.6817 -0.194368 3.42127e-006 5.04083e-006 -0.244366 18.5646 68.1927 -19.7106 -8.1095 24.8397 3.56048 
53.3136 99.8673 21.4629 1.4477 5.98179 -1.99451 0.349364 0.628812 0.171973 0.697628 5.26144 0.294814 0.695387 6.90645 0.283464 -5.08097 -4.99662 -5.18886 1.82504 -1.76184 -5.62702 48.0374 -12.5221 -8.14102 108.501 -2.84424 -18.5108 -2.91674e-007 -3.4775e-006 -1.79532e-006 24.683 45.645 -8.59434 -7.38194e-007 -1.65596e-006 -3.00921 8.02914 -4.95145 0.697677 -52.7869 -7.63479 4.537 -112.748 1.16958 21.4996 -3.61081e-006 -9.63841e-006 7.82647e-006 -15.6909 34.6705 1.77238 5.88699e-006 9.05136e-007 3 -8.029 -4.95147 -0.69769 174.716 18.2586 2.57989 180 7.01573e-015 179.045 178.399 21.6747 179.577 -5.68531e-008 -4.48009e-006 0.19444 -16.7567 65.6246 17.8088 8.19011 26.342 -2.51398 -176.264 16.3469 -0.867287 4.54188e-006 -4.6773e-006 -0.856346 -3.63536 -21.469 -0.238727 3.42127e-006 5.04083e-006 -0.249057 18.5218 68.1279 -19.6596 -8.10648 24.7967 3.56843 
53.3095 99.4704 21.4315 1.39849 6.09429 -2.00644 0.340351 0.631684 0.152531 0.679942 5.26704 0.257168 0.678123 6.91205 0.246064 -4.89609 -5.09717 -5.13025 1.74787 -1.885 -5.5482 48.2662 -12.4078 -8.04459 108.637 -2.48036 -17.9543 -2.91674e-007 -3.4775e-006 -1.79532e-006 24.5953 44.9372 -8.43875 -7.38194e-007 -1.65596e-006 -3.00921 8.02914 -4.95145 0.697677 -52.5652 -7.76431 4.61866 -113.094 1.50941 21.0885 -3.61081e-006 -9.63841e-006 7.82647e-006 -15.7739 33.9078 1.7758 5.88699e-006 9.05136e-007 3 -8.029 -4.95147 -0.69769 174.786 18.6036 2.61897 180 7.01573e-015 179.041 178.332 22.3829 179.575 -5.68531e-008 -4.48009e-006 0.204039 -16.7118 65.5656 17.7718 8.19479 26.5034 -2.38484 -176.123 16.7813 -1.10995 4.54188e-006 -4.6773e-006 -0.855296 -3.81175 -22.2797 -0.284868 3.42127e-006 5.04083e-006 -0.255191 18.4981 68.0891 -19.6296 -8.10463 24.7705 3.57327 
53.3009 99.1275 21.3976 1.3519 6.20525 -2.01793 0.332357 0.634872 0.134042 0.664286 5.27327 0.22128 0.662872 6.91829 0.210391 -4.72994 -5.1937 -5.07606 1.68045 -2.01489 -5.47435 48.4807 -12.2971 -7.95144 108.781 -2.11893 -17.4051 -2.91674e-007 -3.4775e-006 -1.79532e-006 24.5029 44.2414 -8.28726 -7.38194e-007 -1.65596e-006 -3.00922 8.02914 -4.95145 0.697677 -52.3663 -7.88253 4.69362 -113.42 1.84842 20.6876 -3.61081e-006 -9.63841e-006 7.82647e-006 -15.8497 33.169 1.77829 5.88699e-006 9.05136e-007 3 -8.029 -4.95147 -0.69769 174.851 18.9622 2.65945 180 7.01572e-015 179.039 178.269 23.1171 179.575 -5.68531e-008 -4.48009e-006 0.21599 -16.6903 65.5479 17.7606 8.19897 26.6679 -2.26136 -175.982 17.2238 -1.34881 4.54188e-006 -4.6773e-006 -0.85428 -3.98396 -23.1105 -0.332604 3.42127e-006 5.04083e-006 -0.263075 18.4984 68.0834 -19.6257 -8.10429 24.7656 3.57416 
